<?xml version="1.0" encoding="utf-8"?>
<!-- Generator: Adobe Illustrator 24.1.2, SVG Export Plug-In . SVG Version: 6.00 Build 0)  -->
<svg version="1.1" id="Capa_1" xmlns="http://www.w3.org/2000/svg" xmlns:xlink="http://www.w3.org/1999/xlink" x="0px" y="0px"
	 viewBox="0 0 512 512" style="enable-background:new 0 0 512 512;" xml:space="preserve">
<style type="text/css">
	.st0{fill:#FFFFFF;}
</style>
<g>
	<path class="st0" d="M174.2,0H52.9C23.7,0,0,23.7,0,52.9v121.4c0,29.1,23.7,52.9,52.9,52.9h121.4c29.1,0,52.9-23.7,52.9-52.9V52.9
		C227.1,23.7,203.4,0,174.2,0z M202.3,174.2c0,15.5-12.6,28.1-28.1,28.1H52.9c-15.5,0-28.1-12.6-28.1-28.1V52.9
		c0-15.5,12.6-28.1,28.1-28.1h121.4c15.5,0,28.1,12.6,28.1,28.1V174.2z"/>
	<path class="st0" d="M512,53.7C512,24.1,487.9,0,458.3,0H338.6c-29.6,0-53.7,24.1-53.7,53.7v119.7c0,29.6,24.1,53.7,53.7,53.7
		h119.7c29.6,0,53.7-24.1,53.7-53.7V53.7z M487.2,173.4c0,15.9-13,28.9-28.9,28.9H338.6c-15.9,0-28.9-13-28.9-28.9V53.7
		c0-15.9,13-28.9,28.9-28.9h119.7c15.9,0,28.9,13,28.9,28.9V173.4z"/>
	<path class="st0" d="M174.2,284.9H52.9C23.7,284.9,0,308.6,0,337.8v121.4C0,488.3,23.7,512,52.9,512h121.4
		c29.1,0,52.9-23.7,52.9-52.9V337.8C227.1,308.6,203.4,284.9,174.2,284.9z M202.3,459.1c0,15.5-12.6,28.1-28.1,28.1H52.9
		c-15.5,0-28.1-12.6-28.1-28.1V337.8c0-15.5,12.6-28.1,28.1-28.1h121.4c15.5,0,28.1,12.6,28.1,28.1V459.1z"/>
	<path class="st0" d="M512,338.6c0-29.6-24.1-53.7-53.7-53.7H338.6c-29.6,0-53.7,24.1-53.7,53.7v119.7c0,29.6,24.1,53.7,53.7,53.7
		h119.7c29.6,0,53.7-24.1,53.7-53.7V338.6z M487.2,458.3c0,15.9-13,28.9-28.9,28.9H338.6c-15.9,0-28.9-13-28.9-28.9V338.6
		c0-15.9,13-28.9,28.9-28.9h119.7c15.9,0,28.9,13,28.9,28.9V458.3z"/>
</g>
</svg>
