<?xml version="1.0" encoding="utf-8"?>
<!-- Generator: Adobe Illustrator 24.1.2, SVG Export Plug-In . SVG Version: 6.00 Build 0)  -->
<svg version="1.1" id="Home_Desktop" xmlns="http://www.w3.org/2000/svg" xmlns:xlink="http://www.w3.org/1999/xlink" x="0px"
	 y="0px" viewBox="0 0 512 512" style="enable-background:new 0 0 512 512;" xml:space="preserve">
<style type="text/css">
	.st0{fill:#FFFFFF;}
</style>
<g id="XMLID_61_">
	<g>
		<path class="st0" d="M256,512C114.8,512,0,397.2,0,256S114.8,0,256,0c141.2,0,256,114.8,256,256S397.2,512,256,512z M256,19.4
			C125.5,19.4,19.4,125.6,19.4,256S125.5,492.6,256,492.6c130.4,0,236.6-106.1,236.6-236.6S386.5,19.4,256,19.4z"/>
	</g>
	<g id="XMLID_62_">
		<path class="st0" d="M218.5,404.9h60V254.7h41.8l4.5-50.3h-46.3c0,0,0-18.8,0-28.6c0-11.9,2.4-16.5,13.8-16.5c9.2,0,32.4,0,32.4,0
			v-52.2c0,0-34.2,0-41.5,0c-44.6,0-64.7,19.7-64.7,57.3c0,32.8,0,40.1,0,40.1h-31.2v50.9h31.2V404.9z"/>
	</g>
</g>
</svg>
