<?xml version="1.0" encoding="utf-8"?>
<!-- Generator: Adobe Illustrator 24.1.2, SVG Export Plug-In . SVG Version: 6.00 Build 0)  -->
<svg version="1.1" id="Home_Desktop" xmlns="http://www.w3.org/2000/svg" xmlns:xlink="http://www.w3.org/1999/xlink" x="0px"
	 y="0px" viewBox="0 0 131 131" style="enable-background:new 0 0 131 131;" xml:space="preserve">
<style type="text/css">
	.st0{fill:#FFFFFF;}
</style>
<path class="st0" d="M26.3,41.1c0-8.4,6.9-15.1,15.3-15.1h48.1c8.4,0,15.1,6.7,15.1,15.1v35.3c0,8.4-6.7,15.1-15.1,15.1H49
	c-0.8,0-1.5,0-2,0c-0.6,0-1.2,0-1.5,0c-0.3,0.2-0.9,0.8-1.5,1.3c-0.2,0.2-0.5,0.5-0.8,0.7l-11.5,10.5c-0.9,0.8-2.3,1.1-3.4,0.6
	c-1.1-0.5-1.9-1.6-1.9-2.9L26.3,41.1z M98.4,41.1c0-4.9-3.9-8.8-8.8-8.8H41.6c-4.9,0-9,3.9-9,8.8v24.3v29.3l6.3-5.7
	c0.3-0.3,0.6-0.5,0.9-0.7c2.9-2.7,3.6-3.1,7.4-3c0.5,0,1.1,0,1.9,0h40.7c4.9,0,8.8-4,8.8-8.9L98.4,41.1L98.4,41.1z"/>
<g>
	<path class="st0" d="M65.5,131C29.4,131,0,101.6,0,65.5S29.4,0,65.5,0C101.6,0,131,29.4,131,65.5S101.6,131,65.5,131z M65.5,5
		C32.1,5,5,32.1,5,65.5S32.1,126,65.5,126c33.4,0,60.5-27.1,60.5-60.5S98.9,5,65.5,5z"/>
</g>
</svg>
