<?xml version="1.0" encoding="utf-8"?>
<!-- Generator: Adobe Illustrator 24.1.2, SVG Export Plug-In . SVG Version: 6.00 Build 0)  -->
<svg version="1.1" id="Home_Desktop" xmlns="http://www.w3.org/2000/svg" xmlns:xlink="http://www.w3.org/1999/xlink" x="0px"
	 y="0px" viewBox="0 0 512 512" style="enable-background:new 0 0 512 512;" xml:space="preserve">
<style type="text/css">
	.st0{fill:#FFFFFF;}
</style>
<g id="XMLID_45_">
	<g>
		<path class="st0" d="M256,512C114.8,512,0,397.2,0,256S114.8,0,256,0c141.2,0,256,114.8,256,256S397.2,512,256,512z M256,19.4
			C125.5,19.4,19.4,125.6,19.4,256S125.5,492.6,256,492.6c130.5,0,236.6-106.1,236.6-236.6S386.5,19.4,256,19.4z"/>
	</g>
	<g id="XMLID_46_">
		<path id="XMLID_55_" class="st0" d="M256,145.3c36.1,0,40.3,0.1,54.6,0.8c13.2,0.6,20.3,2.8,25.1,4.7c6.3,2.4,10.8,5.4,15.5,10.1
			c4.7,4.7,7.7,9.2,10.1,15.5c1.9,4.8,4,11.9,4.7,25.1c0.6,14.2,0.8,18.5,0.8,54.6s-0.1,40.3-0.8,54.6c-0.6,13.2-2.8,20.3-4.7,25.1
			c-2.4,6.3-5.4,10.8-10.1,15.5c-4.7,4.7-9.2,7.6-15.5,10.1c-4.8,1.9-11.9,4.1-25.1,4.7c-14.2,0.6-18.5,0.8-54.6,0.8
			s-40.3-0.1-54.6-0.8c-13.2-0.6-20.3-2.8-25.1-4.7c-6.3-2.5-10.8-5.4-15.5-10.1c-4.7-4.7-7.7-9.2-10.1-15.5
			c-1.8-4.8-4-11.9-4.7-25.1c-0.6-14.2-0.8-18.5-0.8-54.6s0.1-40.3,0.8-54.6c0.6-13.2,2.8-20.3,4.7-25.1c2.4-6.3,5.4-10.8,10.1-15.5
			c4.7-4.7,9.2-7.6,15.5-10.1c4.8-1.9,11.9-4.1,25.1-4.7C215.7,145.4,219.9,145.3,256,145.3 M256,121c-36.7,0-41.3,0.2-55.7,0.8
			c-14.4,0.7-24.2,2.9-32.8,6.3c-8.9,3.5-16.4,8.1-23.9,15.6c-7.5,7.5-12.1,15-15.6,23.9c-3.3,8.6-5.6,18.4-6.3,32.8
			c-0.7,14.4-0.8,19-0.8,55.7c0,36.7,0.2,41.3,0.8,55.7c0.7,14.4,2.9,24.2,6.3,32.8c3.4,8.9,8.1,16.4,15.6,23.9
			c7.5,7.5,15,12.1,23.9,15.6c8.6,3.3,18.4,5.6,32.8,6.3c14.4,0.7,19,0.8,55.7,0.8c36.7,0,41.3-0.2,55.7-0.8
			c14.4-0.7,24.2-2.9,32.8-6.3c8.9-3.5,16.4-8.1,23.9-15.6c7.5-7.5,12.1-15,15.6-23.9c3.3-8.6,5.6-18.4,6.3-32.8
			c0.7-14.4,0.8-19,0.8-55.7c0-36.7-0.2-41.3-0.8-55.7c-0.7-14.4-2.9-24.2-6.3-32.8c-3.5-8.9-8.1-16.4-15.6-23.9s-15-12.1-23.9-15.6
			c-8.6-3.3-18.4-5.6-32.8-6.3C297.3,121.1,292.7,121,256,121"/>
		<path id="XMLID_49_" class="st0" d="M256,186.7c-38.3,0-69.3,31-69.3,69.3c0,38.3,31,69.3,69.3,69.3c38.3,0,69.3-31,69.3-69.3
			C325.3,217.7,294.3,186.7,256,186.7 M256,301c-24.9,0-45-20.2-45-45c0-24.9,20.2-45,45-45s45,20.2,45,45
			C301,280.9,280.9,301,256,301"/>
		<path id="XMLID_47_" class="st0" d="M344.3,183.9c0,8.9-7.3,16.2-16.2,16.2c-9,0-16.2-7.3-16.2-16.2c0-8.9,7.3-16.2,16.2-16.2
			C337,167.7,344.3,175,344.3,183.9"/>
	</g>
</g>
</svg>
