<?xml version="1.0" encoding="utf-8"?>
<!-- Generator: Adobe Illustrator 24.1.2, SVG Export Plug-In . SVG Version: 6.00 Build 0)  -->
<svg version="1.1" id="Capa_1" xmlns="http://www.w3.org/2000/svg" xmlns:xlink="http://www.w3.org/1999/xlink" x="0px" y="0px"
	 viewBox="0 0 469.3 469.3" style="enable-background:new 0 0 469.3 469.3;" xml:space="preserve">
<style type="text/css">
	.st0{fill:#FFFFFF;}
</style>
<path class="st0" d="M424.7,0.1H44.6c-24.5,0-44.5,20-44.5,44.5c0,24.6,20,44.6,44.5,44.6h380.2c24.5,0,44.5-20,44.5-44.5
	C469.2,20.1,449.2,0.1,424.7,0.1z"/>
<path class="st0" d="M424.7,190.1H44.6c-24.5,0-44.5,20-44.5,44.6c0,24.5,20,44.5,44.5,44.5h380.2c24.5,0,44.5-20,44.5-44.5
	C469.2,210.1,449.2,190.1,424.7,190.1z"/>
<path class="st0" d="M424.7,380.3H44.6c-24.5,0-44.5,19.9-44.5,44.4s20,44.5,44.5,44.5h380.2c24.5,0,44.5-20,44.5-44.5
	C469.3,400.2,449.3,380.3,424.7,380.3z"/>
</svg>
