<?xml version="1.0" encoding="utf-8"?>
<!-- Generator: Adobe Illustrator 24.1.2, SVG Export Plug-In . SVG Version: 6.00 Build 0)  -->
<svg version="1.1" id="Capa_1" xmlns="http://www.w3.org/2000/svg" xmlns:xlink="http://www.w3.org/1999/xlink" x="0px" y="0px"
	 viewBox="0 0 512 512" style="enable-background:new 0 0 512 512;" xml:space="preserve">
<style type="text/css">
	.st0{fill:#FFFFFF;}
</style>
<g>
	<path class="st0" d="M158.2,147c-7.7-7.7-20.8-4.9-24.6,5.3L6.3,491.7c-4.5,12,7.3,23.8,19.3,19.3c17-6.4,325.7-122.1,339.4-127.3
		c10.2-3.8,13.1-16.9,5.3-24.6L158.2,147z M153.5,184.7l61.6,61.6c4.3,51.3,23.3,100.5,54.2,141.3l-64.2,24.1
		c-48-49.9-72.5-119.7-66-188.9L153.5,184.7z M113,446.2c-14.8-16.8-27.1-35.5-36.7-55.8l36.2-96.6c9,49.4,31.2,93.6,62.3,129.2
		L113,446.2z M62.3,427.6c6.3,10.4,13.2,20.3,20.9,29.7l-37.3,14L62.3,427.6z M298.8,376.5c-22.5-27.4-38.6-59.6-47.3-93.8
		l81.1,81.1L298.8,376.5z"/>
	<g>
		<path class="st0" d="M353.8,280.1c5.9,5.9,15.4,5.9,21.2,0c56.4-56.4,111.4-39,111.9-38.8c7.9,2.6,16.4-1.6,19-9.5
			s-1.6-16.4-9.5-19c-3-1-73.2-23.3-142.6,46C348,264.8,348,274.3,353.8,280.1z"/>
	</g>
	<path class="st0" d="M237.2,163.5c5.9,5.9,15.4,5.9,21.2,0c69.4-69.4,47-139.7,46-142.6c-2.6-7.9-11.1-12.1-19-9.5
		s-12.1,11.1-9.5,19c0.2,0.5,17.6,55.5-38.8,111.9C231.3,148.1,231.3,157.6,237.2,163.5L237.2,163.5z"/>
	<path class="st0" d="M290.2,195.3c-5.9,5.9-5.9,15.4,0,21.2c5.8,5.8,15.2,5.9,21.1,0.1c7.7-3.9,31.8,10.6,45.2-2.7
		c13.2-13.2-0.8-36.8,2.7-45c8.3-3.5,31.8,10.5,45-2.7s-0.8-36.8,2.7-45c8.3-3.5,31.8,10.5,45-2.7s-0.8-36.8,2.7-45
		c8.2-3.5,31.8,10.5,45-2.7c13.4-13.4-1.1-37.5,2.7-45.2c5.8-5.9,5.7-15.3-0.1-21.1c-5.9-5.9-15.4-5.9-21.2,0
		c-11.8,11.8-9.5,28.5-7.3,40.4c-11.9-2.2-28.6-4.5-40.4,7.3s-9.5,28.5-7.3,40.4c-11.9-2.2-28.6-4.5-40.4,7.3s-9.5,28.5-7.3,40.4
		c-11.9-2.2-28.6-4.5-40.4,7.3s-9.5,28.5-7.3,40.4C318.7,185.8,302,183.5,290.2,195.3L290.2,195.3z"/>
	<path class="st0" d="M375,68c5.9-5.9,5.9-15.4,0-21.2c-5.9-5.9-15.4-5.9-21.2,0c-5.9,5.9-5.9,15.4,0,21.2
		C359.7,73.9,369.2,73.9,375,68z"/>
	<circle class="st0" cx="470.5" cy="163.5" r="15"/>
	<path class="st0" d="M438.7,301.4c-5.9,5.9-5.9,15.4,0,21.2c5.9,5.9,15.4,5.9,21.2,0c5.9-5.9,5.9-15.4,0-21.2
		C454,295.5,444.5,295.5,438.7,301.4z"/>
	<path class="st0" d="M226.5,89.2c5.9-5.9,5.9-15.4,0-21.2s-15.4-5.9-21.2,0c-5.9,5.9-5.9,15.4,0,21.2
		C211.2,95.1,220.7,95.1,226.5,89.2z"/>
</g>
</svg>
