<?xml version="1.0" encoding="utf-8"?>
<!-- Generator: Adobe Illustrator 24.1.2, SVG Export Plug-In . SVG Version: 6.00 Build 0)  -->
<svg version="1.1" id="Слой_1" xmlns="http://www.w3.org/2000/svg" xmlns:xlink="http://www.w3.org/1999/xlink" x="0px" y="0px"
	 viewBox="0 0 425 425" style="enable-background:new 0 0 425 425;" xml:space="preserve">
<style type="text/css">
	.st0{fill:#FFFFFF;}
</style>
<path class="st0" d="M277.3,413.4c5.2-2,16.9-6.7,30.5-15.3c15.5-9.8,26.9-20.3,34.6-28.4c31.1-32.8,48.3-76.3,48.3-121.5
	c0.4-48.4-18.7-94.8-52.9-129c-5.9-5.9-15.5-6.1-21.6-0.3l-18.5,17.6C288,48.8,224.5,5.3,221.5,3.3c-6.1-4.1-14.3-3.3-19.6,1.9
	L86.6,120.5c-68.4,68.4-69.9,178.7-3.5,249c8.4,9,19.6,19.1,34.1,28.2c37.7,23.7,75.6,26.7,95.3,26.7
	C242,424.9,264.3,418.3,277.3,413.4z M116.9,357.8l-0.9,0.3c-2.6-2.2-5-4.5-7.5-6.9C80.7,323.6,65.2,286,65.3,246.8
	c-0.1-39.2,15.5-76.8,43.2-104.4L214,36.9c18.8,17,58.1,61.5,53.6,133.9c-0.4,6.4,3.1,12.3,8.9,15s12.6,1.6,17.2-2.8l32.3-30.7
	c22.1,27,34,60.9,33.7,95.8c0.1,39.1-15.5,76.5-43.3,104c-2.2,2.2-4.5,4.3-6.8,6.3l-0.8-0.3c11.9-33,6.1-69.8-15.4-97.5L225.1,173
	c-2.9-3.8-7.4-6-12.2-6s-9.3,2.2-12.2,6l-68.3,87.6C110.9,288.2,105,324.8,116.9,357.8z M162.6,373.6c-25.3-25.4-27.8-65.7-5.8-94
	l56.1-71.9l56.1,71.9c23.1,29.6,19.1,72.1-9,97C231.8,401.4,189.2,400.1,162.6,373.6z"/>
</svg>
