<?xml version="1.0" encoding="utf-8"?>
<!-- Generator: Adobe Illustrator 24.1.2, SVG Export Plug-In . SVG Version: 6.00 Build 0)  -->
<svg version="1.1" id="Capa_1" xmlns="http://www.w3.org/2000/svg" xmlns:xlink="http://www.w3.org/1999/xlink" x="0px" y="0px"
	 viewBox="0 0 512 512" style="enable-background:new 0 0 512 512;" xml:space="preserve">
<style type="text/css">
	.st0{fill:#FFFFFF;}
</style>
<g>
	<g>
		<path class="st0" d="M256,0C117.6,0,0,118.3,0,256c0,138.2,118.1,256,256,256c91.7,0,174.6-52,219.9-127.6
			C499.5,345,512,300.6,512,256C512,117.6,393.8,0,256,0z M491.8,246h-43.1l0,0c-1.5-27.2-8.9-53.9-21.9-78.4l36.8-21.2
			C480.6,177.5,490.2,211.6,491.8,246z M453.3,129.3l-36.7,21.2c-14.5-21.8-33.3-40.5-55.1-55.1l21.2-36.7
			C410.8,77.1,434.9,101.2,453.3,129.3z M266,20.2c34.4,1.6,68.5,11.2,99.6,28.1l-21.2,36.8C320,72.2,293.2,64.7,266,63.2V20.2z
			 M246,20.2v43.1c-27.2,1.5-53.9,8.9-78.4,21.9l-21.2-36.8C177.5,31.4,211.6,21.8,246,20.2z M129.3,58.7l21.2,36.7
			c-21.8,14.5-40.5,33.3-55.1,55.1l-36.7-21.2C77.1,101.2,101.2,77.1,129.3,58.7z M48.4,146.4l36.8,21.2
			C72.3,192,64.8,218.8,63.3,246H20.2C21.8,211.6,31.4,177.5,48.4,146.4z M20.2,266h43.1c1.5,27.2,8.9,53.9,21.9,78.4l-36.8,21.2
			C31.4,334.5,21.8,300.4,20.2,266z M58.7,382.7l36.7-21.2c14.5,21.8,33.3,40.5,55.1,55.1l-21.2,36.7
			C101.2,434.9,77.1,410.8,58.7,382.7z M246,491.8c-34.4-1.6-68.5-11.2-99.6-28.1l21.2-36.8c24.4,12.9,51.2,20.4,78.4,21.9V491.8
			L246,491.8z M83,256c0-94.1,79.7-173,173-173c94.2,0,173,79.9,173,173c0,93.8-79.3,173-173,173C162.2,429,83,349.7,83,256z
			 M266,491.8v-43.1c27.2-1.5,53.9-8.9,78.4-21.9l21.2,36.8C334.5,480.6,300.4,490.2,266,491.8z M382.7,453.3l-21.2-36.7
			c21.8-14.5,40.5-33.3,55.1-55.1l36.7,21.2C434.9,410.8,410.8,434.9,382.7,453.3z M463.6,365.6l-36.8-21.2
			c12.9-24.4,20.4-51.3,21.9-78.5h43.1C490.2,300.3,480.6,334.5,463.6,365.6z"/>
	</g>
</g>
<g>
	<g>
		<path class="st0" d="M393.8,181.7c-10.9-20.5-26.7-38.4-45.7-51.9c-4.5-3.2-10.7-2.1-13.9,2.4c-3.2,4.5-2.1,10.7,2.4,13.9
			c16.5,11.7,30.2,27.2,39.6,45c2.6,4.9,8.6,6.7,13.5,4.1C394.5,192.7,396.4,186.6,393.8,181.7z"/>
	</g>
</g>
<g>
	<g>
		<path class="st0" d="M356,226c-13,0-24.2,8.4-28.3,20H305c-4-19.6-19.4-35-39-39v-22.7c11.6-4.1,20-15.2,20-28.3
			c0-16.5-13.5-30-30-30s-30,13.5-30,30c0,13,8.4,24.2,20,28.3V207c-19.6,4-35,19.4-39,39h-22.7c-4.1-11.6-15.2-20-28.3-20
			c-16.5,0-30,13.5-30,30s13.5,30,30,30c13,0,24.2-8.4,28.3-20H207c4,19.6,19.4,35,39,39v22.7c-11.6,4.1-20,15.2-20,28.3
			c0,16.5,13.5,30,30,30s30-13.5,30-30c0-13-8.4-24.2-20-28.3V305c19.6-4,35-19.4,39-39h22.7c4.1,11.6,15.2,20,28.3,20
			c16.5,0,30-13.5,30-30S372.5,226,356,226z M156,266c-5.5,0-10-4.5-10-10s4.5-10,10-10s10,4.5,10,10S161.5,266,156,266z M256,146
			c5.5,0,10,4.5,10,10s-4.5,10-10,10s-10-4.5-10-10S250.5,146,256,146z M256,366c-5.5,0-10-4.5-10-10s4.5-10,10-10s10,4.5,10,10
			S261.5,366,256,366z M256,286c-16.5,0-30-13.5-30-30s13.5-30,30-30s30,13.5,30,30S272.5,286,256,286z M356,266
			c-5.5,0-10-4.5-10-10s4.5-10,10-10s10,4.5,10,10S361.5,266,356,266z"/>
	</g>
</g>
</svg>
