<?xml version="1.0" encoding="utf-8"?>
<!-- Generator: Adobe Illustrator 24.1.2, SVG Export Plug-In . SVG Version: 6.00 Build 0)  -->
<svg version="1.1" id="Capa_1" xmlns="http://www.w3.org/2000/svg" xmlns:xlink="http://www.w3.org/1999/xlink" x="0px" y="0px"
	 viewBox="0 0 512 512" style="enable-background:new 0 0 512 512;" xml:space="preserve">
<style type="text/css">
	.st0{fill:#D93D48;}
</style>
<path class="st0" d="M505.9,476.5l-107-107c32.5-39.1,52.1-89.3,52.1-144C450.9,101.2,349.8,0,225.5,0S0,101.2,0,225.5
	S101.2,451,225.5,451c54.7,0,105-19.6,144.1-52.1l106.9,106.9c4.1,4.1,9.4,6.1,14.7,6.1s10.6-2,14.7-6.1
	C514,497.8,514,484.6,505.9,476.5z M41.7,225.5c0-101.3,82.4-183.9,183.8-183.9s183.8,82.5,183.8,183.8s-82.5,183.9-183.8,183.9
	C124.1,409.3,41.7,326.8,41.7,225.5z"/>
</svg>
