<?xml version="1.0" encoding="utf-8"?>
<!-- Generator: Adobe Illustrator 24.1.2, SVG Export Plug-In . SVG Version: 6.00 Build 0)  -->
<svg version="1.1" id="Layer_1" xmlns="http://www.w3.org/2000/svg" xmlns:xlink="http://www.w3.org/1999/xlink" x="0px" y="0px"
	 viewBox="0 0 512 512" style="enable-background:new 0 0 512 512;" xml:space="preserve">
<style type="text/css">
	.st0{fill:#FFFFFF;}
</style>
<g>
	<g>
		<path class="st0" d="M322.8,200.3H89c-9.2,0-16.7,7.5-16.7,16.7v144.7c0,9.2,7.5,16.7,16.7,16.7h233.7c9.2,0,16.7-7.5,16.7-16.7
			V217C339.5,207.8,332,200.3,322.8,200.3z M150.3,345h-44.5V233.7h44.5V345z M228.2,345h-44.5V233.7h44.5V345z M306.1,345h-44.5
			V233.7h44.5V345z"/>
	</g>
</g>
<g>
	<g>
		<path class="st0" d="M461.9,0c-27.6,0-50.1,22.5-50.1,50.1c0,21.8,14,40.3,33.4,47.2v136.4h-33.4v-27.8
			C411.8,92.4,319.5,0,205.9,0C92.4,0,0,92.4,0,205.9v256C0,489.5,22.5,512,50.1,512h311.7c27.6,0,50.1-22.5,50.1-50.1V267.1H462
			c9.2,0,16.7-7.5,16.7-16.7V97.3C498,90.4,512,71.9,512,50.1C512,22.5,489.5,0,461.9,0z M378.4,461.9c0,9.2-7.5,16.7-16.7,16.7
			H50.1c-9.2,0-16.7-7.5-16.7-16.7v-256c0-95.1,77.4-172.5,172.5-172.5s172.5,77.4,172.5,172.5V461.9z M461.9,66.8
			c-9.2,0-16.7-7.5-16.7-16.7s7.5-16.7,16.7-16.7s16.7,7.5,16.7,16.7S471.1,66.8,461.9,66.8z"/>
	</g>
</g>
<g>
	<g>
		<path class="st0" d="M316.1,144.7c-16.5-46.6-60.8-77.9-110.2-77.9s-93.7,31.3-110.2,77.9c-3.1,8.7,1.5,18.2,10.2,21.3
			s18.2-1.5,21.3-10.2c11.8-33.3,43.4-55.7,78.7-55.7s66.9,22.4,78.7,55.7c2.4,6.8,8.9,11.1,15.7,11.1c1.9,0,3.7-0.3,5.6-1
			C314.6,162.9,319.2,153.4,316.1,144.7z"/>
	</g>
</g>
<g>
	<g>
		<circle class="st0" cx="205.9" cy="150.3" r="16.7"/>
	</g>
</g>
<g>
	<g>
		<path class="st0" d="M289.4,411.8h-167c-9.2,0-16.7,7.5-16.7,16.7s7.5,16.7,16.7,16.7h167c9.2,0,16.7-7.5,16.7-16.7
			S298.6,411.8,289.4,411.8z"/>
	</g>
</g>
</svg>
