<?xml version="1.0" encoding="utf-8"?>
<!-- Generator: Adobe Illustrator 24.1.2, SVG Export Plug-In . SVG Version: 6.00 Build 0)  -->
<svg version="1.1" id="Outline" xmlns="http://www.w3.org/2000/svg" xmlns:xlink="http://www.w3.org/1999/xlink" x="0px" y="0px"
	 viewBox="0 0 512 512" style="enable-background:new 0 0 512 512;" xml:space="preserve">
<style type="text/css">
	.st0{fill:#FFFFFF;}
</style>
<path class="st0" d="M490.1,153L360,118.1V96c0-4.4-3.6-8-8-8H160c-4.4,0-8,3.6-8,8v30.1L21.9,161c-4.3,1.1-6.8,5.5-5.7,9.8l0,0
	l66.3,247.3c1.1,4.3,5.5,6.8,9.8,5.7l0,0l178.6-47.9l148.7,39.9c4.3,1.1,8.7-1.4,9.8-5.7l0,0l66.3-247.3
	C496.9,158.5,494.3,154.1,490.1,153L490.1,153L490.1,153z M374.6,250.6c0.6,4.1,4.1,7.1,8.3,6.9c1.6-0.1,3.2,0.1,4.8,0.5
	c8.5,2.3,13.6,11.1,11.3,19.6c-2.3,8.5-11.1,13.6-19.6,11.3c-8.5-2.3-13.6-11.1-11.3-19.6c1.1-4.3-1.4-8.7-5.7-9.8
	c-0.8-0.2-1.6-0.3-2.4-0.3v-42.5c6.6-5.9,16.7-5.4,22.6,1.1c5.9,6.6,5.4,16.7-1.1,22.6c-0.9,0.8-1.8,1.5-2.9,2.1
	C375.8,244.2,374.2,247.4,374.6,250.6z M168,104h176v240h-66l-19.4-72.4c0.9-0.3,1.8-0.8,2.5-1.4c0.5-0.4,12.4-10.4,24.5-22.5
	c12.3-12.3,26.3-27.9,26.3-39.7c0-17.7-14.3-32-32-32c-9.2,0-18,4-24,10.9c-5.8-6.6-14.2-10.6-23-10.8L217.2,117
	c-1.1-4.3-5.5-6.8-9.8-5.7l0,0L168,121.9V104z M253.1,250.8L237.6,193c6.3,2.3,10.4,8.3,10.4,15c0,4.4,3.6,8,8,8s8-3.6,8-8
	c0-8.8,7.2-16,16-16s16,7.2,16,16c0,0.3-0.2,6.9-21.6,28.3c-6.9,6.9-13.9,13.2-18.4,17.2C255.1,252.7,254.1,251.8,253.1,250.8z
	 M95.9,406.2L33.8,174.4l170-45.5l62.1,231.8L95.9,406.2z M416.1,398.2L283,362.5l-0.7-2.5H352c4.4,0,8-3.6,8-8v-56.8
	c4.1,4.5,9.4,7.7,15.3,9.2c2.7,0.7,5.5,1.1,8.3,1.1c17.7,0,32-14.4,31.9-32.1c0-11.9-6.7-22.9-17.3-28.4
	c9.1-15.2,4.1-34.8-11.1-43.9c-8.2-4.9-18.1-5.9-27.1-2.7v-63.8l118.2,31.7L416.1,398.2z"/>
<path class="st0" d="M423.8,184.9l15.5,4.1l-4.1,15.5c-1.1,4.3,1.4,8.7,5.7,9.8c4.3,1.1,8.7-1.4,9.8-5.7l6.2-23.2
	c1.1-4.3-1.4-8.7-5.7-9.8l0,0l-23.2-6.2c-4.3-1.1-8.6,1.4-9.8,5.7C417.1,179.4,419.6,183.8,423.8,184.9L423.8,184.9z"/>
<path class="st0" d="M407.7,338c-4.3-1.1-8.7,1.4-9.8,5.7l0,0l-4.1,15.5l-15.5-4.1c-4.3-1.1-8.7,1.4-9.8,5.7
	c-1.1,4.3,1.4,8.7,5.7,9.8l0,0l23.2,6.2c4.3,1.1,8.7-1.4,9.8-5.7l0,0l6.2-23.2C414.5,343.5,412,339.1,407.7,338z"/>
<path class="st0" d="M296,136h16v16c0,4.4,3.6,8,8,8s8-3.6,8-8v-24c0-4.4-3.6-8-8-8h-24c-4.4,0-8,3.6-8,8
	C288,132.4,291.6,136,296,136z"/>
<path class="st0" d="M320,288c-4.4,0-8,3.6-8,8v16h-16c-4.4,0-8,3.6-8,8s3.6,8,8,8h24c4.4,0,8-3.6,8-8v-24
	C328,291.6,324.4,288,320,288z"/>
<path class="st0" d="M142.9,215.3c-3.2-3-8.3-2.8-11.3,0.4c-0.8,0.9-1.4,2-1.8,3.1l-16.6,54.1c-0.9,2.9,0,6.1,2.2,8.2l41.4,38.6
	c3.2,3,8.3,2.8,11.3-0.4c0.8-0.9,1.4-2,1.8-3.1l16.6-54.1c0.9-2.9,0-6.1-2.2-8.2L142.9,215.3z M158.4,299.3L130,272.8l11.3-37.1
	l28.4,26.5L158.4,299.3z"/>
<path class="st0" d="M84.3,177.4l-23.2,6.2c-4.3,1.1-6.8,5.5-5.7,9.8l0,0l6.2,23.2c1.1,4.3,5.5,6.8,9.8,5.7c4.3-1.1,6.8-5.5,5.7-9.8
	L73,197l15.5-4.1c4.3-1.1,6.8-5.5,5.7-9.8S88.6,176.3,84.3,177.4L84.3,177.4L84.3,177.4z"/>
<path class="st0" d="M194.6,156.2c-1.1-4.3-5.5-6.8-9.8-5.7l0,0l-23.2,6.2c-4.3,1.1-6.8,5.5-5.7,9.8s5.5,6.8,9.8,5.7l15.5-4.1
	l4.1,15.5c1.1,4.3,5.5,6.8,9.8,5.7s6.8-5.5,5.7-9.8l0,0L194.6,156.2z"/>
<path class="st0" d="M213.3,357.9c0.7,0,1.4-0.1,2.1-0.3l23.2-6.2c4.3-1.1,6.8-5.5,5.7-9.8l0,0l-6.2-23.2c-1.2-4.3-5.6-6.8-9.8-5.6
	c-4.2,1.2-6.8,5.5-5.6,9.8l4.1,15.5l-15.5,4.1c-4.3,1.1-6.8,5.5-5.7,9.8C206.5,355.5,209.7,357.9,213.3,357.9L213.3,357.9z"/>
<path class="st0" d="M134,362.9l-15.5,4.1l-4.1-15.5c-1.1-4.3-5.5-6.8-9.8-5.7c-4.3,1.1-6.8,5.5-5.7,9.8c0,0,0,0,0,0.1l6.2,23.2
	c1.1,4.3,5.5,6.8,9.8,5.7l0,0l23.2-6.2c4.3-1.2,6.8-5.6,5.6-9.8C142.6,364.3,138.2,361.8,134,362.9z"/>
</svg>
