<?xml version="1.0" encoding="utf-8"?>
<!-- Generator: Adobe Illustrator 24.1.2, SVG Export Plug-In . SVG Version: 6.00 Build 0)  -->
<svg version="1.1" id="Home_Desktop" xmlns="http://www.w3.org/2000/svg" xmlns:xlink="http://www.w3.org/1999/xlink" x="0px"
	 y="0px" viewBox="0 0 512 512" style="enable-background:new 0 0 512 512;" xml:space="preserve">
<style type="text/css">
	.st0{fill:#FFFFFF;}
</style>
<g>
	<g id="XMLID_64_">
		<g>
			<path class="st0" d="M256,512C114.8,512,0,397.2,0,256S114.8,0,256,0c141.2,0,256,114.8,256,256S397.2,512,256,512z M256,19.4
				C125.5,19.4,19.4,125.6,19.4,256S125.5,492.6,256,492.6c130.5,0,236.6-106.1,236.6-236.6S386.5,19.4,256,19.4z"/>
		</g>
		<g id="XMLID_65_">
			<path class="st0" d="M124.8,338.5c23.8,15.3,52.1,24.2,82.5,24.2c100,0,156.4-84.4,153-160.2c10.5-7.6,19.6-17.1,26.9-27.9
				c-9.7,4.3-20,7.2-30.9,8.5c11.1-6.6,19.7-17.2,23.7-29.8c-10.4,6.2-21.9,10.7-34.2,13.1c-9.8-10.5-23.8-17-39.3-17
				c-34.8,0-60.3,32.4-52.4,66.1c-44.8-2.2-84.4-23.7-111-56.3c-14.1,24.2-7.3,55.9,16.7,71.9c-8.8-0.3-17.1-2.7-24.4-6.7
				c-0.6,25,17.3,48.3,43.2,53.5c-7.6,2.1-15.9,2.5-24.3,0.9c6.8,21.4,26.7,37,50.3,37.4C181.9,333.9,153.3,341.8,124.8,338.5z"/>
		</g>
	</g>
</g>
</svg>
