<?xml version="1.0" encoding="utf-8"?>
<!-- Generator: Adobe Illustrator 24.1.2, SVG Export Plug-In . SVG Version: 6.00 Build 0)  -->
<svg version="1.1" id="Layer_5" xmlns="http://www.w3.org/2000/svg" xmlns:xlink="http://www.w3.org/1999/xlink" x="0px" y="0px"
	 viewBox="0 0 512 512" style="enable-background:new 0 0 512 512;" xml:space="preserve">
<style type="text/css">
	.st0{fill:#FFFFFF;}
</style>
<g>
	<rect x="130" y="173.4" class="st0" width="20.8" height="20.8"/>
	<path class="st0" d="M256,0C192.7,0,131.9,23.4,84.8,65.8C38.1,108,8.6,165.4,1.7,227.6l-0.4,3.6c0,0.5,0,1-0.1,1.5
		c0,1-0.1,2-0.2,3l-0.5,9.2c-0.3,4-0.5,7.5-0.5,11.1c0,141.2,114.8,256,256,256s256-114.8,256-256S397.2,0,256,0z M158.9,443.8V470
		l-5.8-2.9c-39-19.1-72-48.5-95.5-85.1c-24.1-37.7-36.8-81.2-36.8-126v-4.1h148.5c10.2,0,18.5,8.3,18.5,18.5s-8.3,18.5-18.5,18.5
		H126c-21.7,0-39.3,17.6-39.3,39.3c0,21.7,17.6,39.3,39.3,39.3h101.1c10.2,0,18.5,8.3,18.5,18.5s-8.3,18.5-18.5,18.5h-28.9
		C176.5,404.5,158.9,422.2,158.9,443.8z M472.9,346.8h-72.4c-10.2,0-18.5-8.3-18.5-18.5s8.3-18.5,18.5-18.5h14.4
		c21.7,0,39.3-17.6,39.3-39.3s-17.6-39.3-39.3-39.3h-72.2c-21.7,0-39.3,17.6-39.3,39.3v53.7h20.8v-53.7c0-10.2,8.3-18.5,18.5-18.5
		h72.2c10.2,0,18.5,8.3,18.5,18.5s-8.3,18.5-18.5,18.5h-14.4c-21.7,0-39.3,17.6-39.3,39.3c0,21.7,17.6,39.3,39.3,39.3H463l-3.5,6.1
		c-29.1,50.1-75.2,87.6-129.9,105.7l-5.3,1.8V419h-20.8v67.3l-3.3,0.6c-14.9,2.8-29.7,4.3-44.1,4.3c-24.8,0-49.6-4-73.5-11.9
		l-2.8-0.9v-34.6c0-10.2,8.3-18.5,18.5-18.5h28.9c21.7,0,39.3-17.6,39.3-39.3s-17.6-39.3-39.3-39.3H126c-10.2,0-18.5-8.3-18.5-18.5
		s8.3-18.5,18.5-18.5h43.3c21.7,0,39.3-17.6,39.3-39.3s-17.6-39.3-39.3-39.3H22.2l0.6-4.6c1.2-9.6,3.1-19.2,5.7-29.4l0.8-3H93v-20.8
		H35.8l2.3-5.6C55.5,124.9,84.9,88.3,123.2,62c39.2-27,85.1-41.2,132.8-41.2c39.6,0,78.9,10.2,113.6,29.4l13.7,7.6H241.6
		c-21.7,0-39.3,17.6-39.3,39.3s17.6,39.3,39.3,39.3h86.7c10.2,0,18.5,8.3,18.5,18.5s-8.3,18.5-18.5,18.5H187.8v20.8h140.4
		c21.7,0,39.3-17.6,39.3-39.3s-17.6-39.3-39.3-39.3h-86.7c-10.2,0-18.5-8.3-18.5-18.5s8.3-18.5,18.5-18.5h168.4l1.2,1
		c50.9,44.8,80.2,109.1,80.2,176.4c0,30.3-5.8,59.9-17.3,88.2L472.9,346.8z"/>
	<rect x="303.4" y="361.2" class="st0" width="20.8" height="20.8"/>
</g>
</svg>
